Coordinates
version=1
nRows=24
nColumns=24
inDegrees=yes

Units are S.I. units (second, meters, Newtons, ...)
Angles are in degrees.

endheader
time	pelvis_tilt	pelvis_list	pelvis_rotation	pelvis_tx	pelvis_ty	pelvis_tz	hip_flexion_r	hip_adduction_r	hip_rotation_r	knee_angle_r	ankle_angle_r	subtalar_angle_r	mtp_angle_r	hip_flexion_l	hip_adduction_l	hip_rotation_l	knee_angle_l	ankle_angle_l	subtalar_angle_l	mtp_angle_l	lumbar_extension	lumbar_bending	lumbar_rotation
      3.59500000	     -8.56898144	     -2.81914874	     -7.87260878	     -1.03043168	     -0.04541570	     -0.24655858	     -8.04572032	      3.80434913	      9.27241044	    -20.21575262	      6.13593547	      9.37106239	     17.43926827	     39.10423912	     -8.00002958	     -4.48821631	    -18.74264937	      4.99606759	     22.12554016	     -4.55209092	      6.74922358	      2.37612380	      5.95490850
      3.60000000	     -8.60564396	     -2.55891555	     -7.95291139	     -1.02225164	     -0.04661254	     -0.24730522	     -8.15445554	      3.32391376	      8.92780345	    -20.77236541	      5.49548487	      9.94942224	     18.83080824	     39.23943038	     -7.73445792	     -4.64232988	    -19.66441339	      3.79777978	     21.46033412	     -3.23080581	      6.96713986	      2.05256902	      6.04318984
      3.60500000	     -8.68406376	     -2.30442201	     -8.19053930	     -1.01423484	     -0.04769975	     -0.24772184	     -8.15130025	      2.89054543	      8.92353851	    -21.49718985	      4.98504059	     10.44650351	     19.11065708	     39.42817161	     -7.61056922	     -4.94147924	    -20.73188131	      2.98574463	     20.98968060	     -3.19350534	      7.19627598	      1.74724890	      6.37971581
      3.61000000	     -8.74927729	     -2.02258276	     -8.19823297	     -1.00617624	     -0.04875476	     -0.24858386	     -8.12632065	      2.36640807	      8.32185643	    -22.19352163	      4.29849160	     11.37500282	     20.32933976	     39.63247386	     -7.26412487	     -4.94283981	    -21.72237024	      1.84296789	     20.16811228	     -2.61598278	      7.41640680	      1.39192574	      6.43322571
      3.61500000	     -8.87281551	     -1.65024372	     -8.32488852	     -0.99811961	     -0.04965152	     -0.24917407	     -8.00753985	      1.78584118	      8.09886526	    -22.93102938	      3.53794064	     12.06629731	     21.17698619	     39.86135961	     -6.93058878	     -5.09568937	    -22.70538922	      0.79541077	     19.33207907	     -2.47558359	      7.71277119	      0.93950950	      6.59494486
      3.62000000	     -8.92497885	     -1.29696663	     -8.27338128	     -0.99011422	     -0.05042218	     -0.24994829	     -7.92731946	      1.19255561	      7.39546556	    -23.67068139	      2.51470713	     12.83378377	     22.57020201	     40.04208482	     -6.46923025	     -4.97974353	    -23.67212759	     -0.26976946	     18.42687168	     -2.29988818	      7.91176615	      0.46318862	      6.66117288
      3.62500000	     -9.00618217	     -0.87407653	     -8.23853007	     -0.98205904	     -0.05110783	     -0.25066751	     -7.79914116	      0.53410854	      6.83465350	    -24.41076833	      1.39277642	     13.53681839	     24.05984425	     40.24692032	     -5.94812194	     -4.92252683	    -24.65885311	     -1.20071397	     17.43244314	     -2.42873694	      8.15869147	     -0.09113314	      6.70240928
      3.63000000	     -9.11883413	     -0.49215890	     -8.21876439	     -0.97412720	     -0.05173206	     -0.25143831	     -7.54824538	     -0.10720607	      6.16484032	    -25.31361611	      0.31046825	     14.55366470	     25.04426108	     40.47578363	     -5.43417558	     -4.68509235	    -25.65070052	     -1.94295943	     16.33033514	     -2.86437847	      8.40932122	     -0.58271711	      6.78914469
      3.63500000	     -9.18332847	     -0.07148312	     -8.15080017	     -0.96607484	     -0.05221587	     -0.25227164	     -7.34506050	     -0.81791167	      5.40786133	    -26.17432081	     -1.01923225	     15.54094165	     26.41881939	     40.61868142	     -4.81598162	     -4.36662385	    -26.60961505	     -2.49348842	     15.18339096	     -3.48335814	      8.63072089	     -1.13102016	      6.85754789
      3.64000000	     -9.25097743	      0.34133480	     -8.06600971	     -0.95810102	     -0.05262468	     -0.25311725	     -7.09610751	     -1.52460673	      4.66891334	    -27.09070265	     -2.44603585	     16.54896804	     27.74860654	     40.75195866	     -4.17444683	     -4.01448203	    -27.55223866	     -2.92812259	     14.02894741	     -4.21756724	      8.83496659	     -1.67513433	      6.89529460
      3.64500000	     -9.31747331	      0.75612758	     -7.98949832	     -0.95007401	     -0.05296346	     -0.25398563	     -6.81228898	     -2.24990909	      3.94203711	    -28.05843660	     -3.98084940	     17.57708239	     28.93690254	     40.83236174	     -3.50556489	     -3.61686305	    -28.43689169	     -3.17660307	     12.86117401	     -4.94469392	      9.05015855	     -2.21240842	      6.92422660
      3.65000000	     -9.35774380	      1.15952680	     -7.90438796	     -0.94205795	     -0.05320485	     -0.25487027	     -6.52434433	     -2.97716126	      3.22625305	    -29.05602840	     -5.66265274	     18.59020726	     30.14282729	     40.83572722	     -2.81640756	     -3.17701968	    -29.25802722	     -3.25604304	     11.75102089	     -5.67581856	      9.23305233	     -2.74138961	      6.97291007
      3.65500000	     -9.40368735	      1.54727787	     -7.82595626	     -0.93408536	     -0.05338801	     -0.25578251	     -6.18781242	     -3.69083949	      2.57709184	    -30.11256599	     -7.41052878	     19.58489657	     31.14460091	     40.79733113	     -2.12995702	     -2.73303113	    -30.01046019	     -3.21565321	     10.68294936	     -6.30552695	      9.41521092	     -3.23904956	      7.01851975
      3.66000000	     -9.44485000	      1.91728177	     -7.74653488	     -0.92619483	     -0.05350295	     -0.25671820	     -5.80743307	     -4.38486628	      1.99459896	    -31.23391722	     -9.21631940	     20.54216279	     31.97271885	     40.70594578	     -1.44952975	     -2.29885621	    -30.68688481	     -3.06951625	      9.68047719	     -6.82981975	      9.58118172	     -3.71597833	      7.05618642
      3.66500000	     -9.55370719	      2.29246702	     -7.68845809	     -0.91833578	     -0.05359233	     -0.25759594	     -5.29997546	     -5.04767470	      1.55803776	    -32.44576908	    -10.99617046	     21.32648820	     32.26844533	     40.62204263	     -0.78712664	     -1.91318463	    -31.25067231	     -2.90212596	      8.68163783	     -7.13493734	      9.82857926	     -4.18255544	      7.10522334
      3.67000000	     -9.63690630	      2.67663869	     -7.58783614	     -0.91061389	     -0.05363326	     -0.25854753	     -4.75831308	     -5.73300956	      1.06235738	    -33.73912494	    -12.75813410	     22.08303960	     32.51786540	     40.47867773	     -0.10060459	     -1.58133882	    -31.74345887	     -2.62819814	      7.86520232	     -7.35393880	     10.02611688	     -4.67001671	      7.09367220
      3.67500000	     -9.72710118	      3.04969122	     -7.49600676	     -0.90309257	     -0.05360545	     -0.25944984	     -4.13170813	     -6.37998000	      0.64812090	    -35.13024388	    -14.49618219	     22.58217921	     32.53040932	     40.30689337	      0.54232693	     -1.33067410	    -32.15865172	     -2.30026516	      7.22472165	     -7.45743644	     10.20170379	     -5.14431242	      7.07920973
      3.68000000	     -9.85540992	      3.43341081	     -7.38336061	     -0.89554425	     -0.05354896	     -0.26044208	     -3.44035142	     -7.02691756	      0.30008480	    -36.53416239	    -16.17977818	     23.04429637	     32.43422626	     40.11883691	      1.20495376	     -1.11008233	    -32.47905461	     -1.88974353	      6.58890473	     -7.52857191	     10.44072655	     -5.61478845	      7.02299131
      3.68500000	     -9.96330294	      3.79387976	     -7.27231696	     -0.88822914	     -0.05341979	     -0.26131403	     -2.68790659	     -7.62014110	     -0.03952463	    -38.04377060	    -17.78654990	     23.11184329	     32.10247853	     39.89031633	      1.79363133	     -1.01489180	    -32.74755850	     -1.40580655	      6.23469404	     -7.44507156	     10.62050770	     -6.08250446	      6.96035994
      3.69000000	    -10.20175196	      4.22702163	     -7.13217002	     -0.88098147	     -0.05333345	     -0.26238138	     -1.72534590	     -8.27473886	     -0.30305482	    -39.63632683	    -19.21312478	     23.20167923	     31.54411538	     39.75388353	      2.47343033	     -0.88469208	    -32.89403273	     -1.01449695	      5.74751898	     -7.45420032	     10.95036361	     -6.58044410	      6.84615698
      3.69500000	    -10.44515908	      4.63786175	     -6.99416545	     -0.87387160	     -0.05319780	     -0.26334664	     -0.69129523	     -8.87321758	     -0.54593621	    -41.30798095	    -20.48932436	     22.93261880	     30.63396713	     39.60082048	      3.08410116	     -0.86142050	    -32.99409067	     -0.55138404	      5.47953368	     -7.35950292	     11.26969847	     -7.06664414	      6.71810896
      3.70000000	    -10.70075642	      5.02981299	     -6.84836124	     -0.86689309	     -0.05300903	     -0.26426709	      0.41267206	     -9.42337307	     -0.75928051	    -43.03475601	    -21.58390559	     22.40886761	     29.42705713	     39.43757915	      3.64863300	     -0.89711970	    -33.03920454	     -0.06063481	      5.36296396	     -7.19797720	     11.58501421	     -7.54023497	      6.56392465
      3.70500000	    -10.96562883	      5.41778381	     -6.66465901	     -0.86001056	     -0.05280805	     -0.26517319	      1.57256690	     -9.95501724	     -0.99827297	    -44.82442401	    -22.38289724	     21.74985248	     27.84254146	     39.26977883	      4.19814961	     -0.97154031	    -33.04622217	      0.46982914	      5.45502886	     -6.96136593	     11.89511826	     -8.02243164	      6.37064013
      3.71000000	    -11.17472889	      5.81019661	     -6.51687687	     -0.85315692	     -0.05237496	     -0.26603088	      2.69787642	    -10.46355833	     -1.15443045	    -46.51330967	    -23.29207978	     20.66298048	     26.75868730	     38.98229983	      4.74013589	     -1.08190165	    -32.93728723	      0.93800104	      5.44137331	     -6.80605930	     12.14807253	     -8.50667804	      6.12246207
